PathFileType	4	(X/Y/Z)	D:\TRACE\v60_Jaco2_6-2-23\v60_baseline_1-platform.trc
DataRate	CameraRate	NumFrames	NumMarkers	Units	OrigDataRate	OrigDataStartFrame	OrigNumFrames
100.00	100.00	      37	5	mm	100.00	3907	      6251
Frame#	Time	Left_Front			Right_Front			Left_Aft			Right_Aft			Post			
		X1	Y1	Z1	X2	Y2	Z2	X3	Y3	Z3	X4	Y4	Z4	X5	Y5	Z5	

3907	39.060	-800.56830	8.72195	-638.90082	769.39001	10.12551	-644.40259	-707.89020	6.78258	496.40503	733.15002	6.66948	505.22318	-14.07371	1308.09485	-961.94611	
3908	39.070	-800.60724	8.81987	-638.77173	769.31812	10.21543	-644.42725	-707.80096	6.73609	496.57495	733.15784	6.63206	505.20074	-14.13133	1308.10352	-961.87378	
3909	39.080	-800.62311	8.88271	-638.76007	769.33557	10.23676	-644.37720	-707.76129	6.68580	496.47598	733.23273	6.69404	505.23193	-14.11459	1308.15125	-961.83679	
3910	39.090	-800.64325	8.87597	-638.76575	769.38129	10.21044	-644.44092	-708.52985	7.74890	496.13235	733.25146	6.69074	505.23709	-14.10861	1308.22314	-961.84595	
3911	39.100	-800.61383	8.74249	-638.85760	769.38550	10.24975	-644.45465	-708.58820	7.77590	496.12668	733.19312	6.68238	505.21475	-14.09624	1308.18262	-961.74182	
3912	39.110	-800.53180	8.57577	-638.96875	769.31415	10.19629	-644.43970	-708.58569	7.76017	496.08090	733.26855	6.71161	505.21796	-14.14910	1308.16968	-961.76611	
3913	39.120	-800.56744	8.76507	-638.93329	769.30731	10.20171	-644.42841	-708.63867	7.80813	496.01816	733.15027	6.68109	505.21161	-14.11283	1308.14941	-961.81818	
3914	39.130	-800.62756	8.87852	-638.80066	769.35791	10.19073	-644.43457	-709.36047	8.95066	495.52753	733.14783	6.64229	505.22003	-14.14631	1308.15100	-961.91089	
3915	39.140	-800.66357	8.90319	-638.79425	769.36621	10.24042	-644.46387	-708.83575	8.14549	495.86798	733.17078	6.71675	505.23709	-14.15878	1308.19995	-961.91254	
3916	39.150	-800.65826	8.84784	-638.75055	769.36938	10.28552	-644.44342	-708.79370	8.16362	496.00836	733.24365	6.73166	505.20789	-14.09472	1308.20715	-962.01874	
3917	39.160	-800.55548	8.69546	-638.88776	769.32233	10.24627	-644.45490	-708.74359	8.07454	496.08096	733.32507	6.78517	505.21921	-14.10013	1308.15271	-962.04449	
3918	39.170	-800.53589	8.68589	-638.92297	769.38788	10.19611	-644.48016	-708.75153	8.07296	496.01801	733.39636	6.81735	505.21735	-14.01793	1308.11890	-962.04565	
3919	39.180	-800.62390	8.85560	-638.83966	769.32422	10.20484	-644.45624	-708.75836	8.10607	496.05209	733.21265	6.68924	505.21570	-14.10339	1308.16272	-962.05029	
3920	39.190	-800.68518	8.89911	-638.73297	769.32544	10.20286	-644.45282	-709.08307	8.38034	496.14661	734.22467	7.43215	506.25421	-14.11322	1308.19116	-962.04077	
3921	39.200	-800.70270	8.90467	-638.70142	769.36511	10.23454	-644.42896	-709.10364	8.40103	496.15308	733.60852	6.97546	505.88403	-14.13460	1308.19141	-962.03906	
3922	39.210	-800.59900	8.77930	-638.76746	769.37109	10.25633	-644.47430	-709.11877	8.40401	496.17688	733.62640	6.97317	505.81570	-14.08118	1308.20166	-961.92456	
3923	39.220	-800.59674	8.74331	-638.84491	769.37000	10.18728	-644.45441	-709.05707	8.36652	496.20151	733.53217	6.90731	505.72906	-14.11464	1308.13623	-961.78247	
3924	39.230	-800.56830	8.81601	-638.85083	769.38788	10.15601	-644.41669	-709.03198	8.29259	496.15457	733.56024	6.95465	505.71265	-14.18869	1308.14539	-961.70361	
3925	39.240	-800.55823	9.05740	-638.73480	769.25818	10.24133	-644.50330	-708.73248	8.01744	496.06592	733.53125	6.94488	505.73730	-14.13834	1308.10608	-961.67877	
3926	39.250	-800.60950	9.13680	-638.69196	769.33984	10.27788	-644.45911	-709.27795	8.52291	496.26328	733.49048	6.89017	505.72635	-14.22310	1308.12708	-961.71387	
3927	39.260	-800.59937	9.11674	-638.59192	769.36884	10.16128	-644.42719	-708.75299	8.00839	496.09427	733.50452	6.90502	505.73331	-14.26217	1308.19189	-961.82068	
3928	39.270	-800.56244	8.65733	-638.85492	769.43945	9.95497	-644.35870	-708.82733	7.98656	496.04233	733.53882	6.99195	505.74374	-14.29700	1308.21106	-961.83557	
3929	39.280	-800.55212	8.55617	-638.98047	769.36017	9.96886	-644.40424	-708.76965	8.01501	496.01855	733.58264	6.98545	505.72342	-14.07170	1308.14771	-961.98425	
3930	39.290	-800.55225	8.74221	-638.92621	769.34454	10.15750	-644.43909	-708.77338	7.92832	496.01291	733.60706	6.95737	505.71994	-14.04343	1308.13452	-962.08276	
3931	39.300	-800.51337	9.09324	-638.75403	769.38818	10.07472	-644.41528	-708.71686	7.85394	496.10306	733.57410	6.96376	505.72888	-14.20151	1308.16040	-962.15070	
3932	39.310	-800.58124	9.17783	-638.62506	769.37000	10.11956	-644.41492	-708.67926	7.93683	496.16306	733.55853	6.93425	505.74274	-14.21544	1308.26147	-962.22150	
3933	39.320	-800.62329	8.95402	-638.79639	769.43567	10.19683	-644.39868	-709.22827	8.45226	496.29562	733.61053	6.99542	505.71695	-14.21000	1308.32288	-962.15033	
3934	39.330	-800.59302	8.72206	-638.89856	769.36743	10.19222	-644.44226	-708.77222	7.94965	496.10104	733.58301	6.98326	505.71454	-14.20293	1308.23413	-961.96356	
3935	39.340	-800.57318	8.71503	-638.99036	769.33716	10.03161	-644.38123	-708.76874	7.85407	496.02518	733.55695	6.98028	505.71851	-14.24215	1308.15759	-961.76501	
3936	39.350	-800.59467	8.98060	-638.75269	769.31879	10.02654	-644.39978	-708.76147	7.89347	496.05228	733.50177	6.93637	505.74728	-14.23166	1308.14783	-961.63019	
3937	39.360	-800.56592	9.10609	-638.64355	769.33795	10.11738	-644.41071	-708.73157	7.88934	496.10620	733.47113	6.93820	505.75018	-14.17684	1308.12341	-961.50458	
3938	39.370	-800.59497	9.04115	-638.67725	769.30719	10.24249	-644.43384	-708.98468	8.27969	496.22083	733.52051	6.93764	505.76270	-14.29205	1308.19421	-961.59052	
3939	39.380	-800.62805	8.94719	-638.79047	769.42291	10.15951	-644.41656	-708.70776	8.01703	496.07642	733.55743	6.94366	505.72009	-14.30074	1308.26709	-961.75671	
3940	39.390	-800.56702	8.84758	-638.85767	769.45575	10.12405	-644.39624	-708.72290	7.87689	496.07788	733.61407	7.00900	505.72040	-14.12271	1308.20264	-961.85876	
3941	39.400	-800.56482	8.79532	-638.89392	769.37634	10.05693	-644.39978	-709.06378	8.12990	496.15482	733.53235	6.90979	505.73627	-14.13222	1308.13599	-961.99463	
3942	39.410	-800.58160	8.92880	-638.77972	769.37927	10.04250	-644.38098	-708.71887	7.86247	496.04831	733.47717	6.92353	505.75247	-14.14536	1308.13391	-962.08228	
3943	39.420	-800.57532	9.02517	-638.63519	769.40302	10.11292	-644.36646	-709.05365	8.24253	496.24963	733.53601	6.95829	505.74759	-14.15479	1308.18652	-962.18243	
